# 3ds Max Wavefront OBJ Exporter v0.97b - (c)2007 guruware
# File Created: 06.05.2019 17:41:20

#
# object Sphere005
#

v  -0.0000 9.9998 -13.1846
v  7.0711 7.0709 -13.1846
v  5.0000 7.0709 -18.1846
v  -0.0000 7.0709 -20.2557
v  3.1785 8.1379 -10.0061
v  5.5019 7.0709 -9.3962
v  10.0000 -0.0002 -13.1846
v  7.0711 -0.0002 -20.2557
v  -5.0000 7.0709 -18.1846
v  -0.0000 -0.0002 -23.1846
v  7.1500 11.4406 -6.9617
v  10.1116 -0.0000 -10.1207
v  8.9444 -0.0000 -10.6364
v  0.0000 9.1080 -11.0316
v  0.0000 11.4406 -10.1207
v  8.9444 -0.0002 -10.6363
v  -0.0000 9.1080 -11.0316
v  7.0711 -7.0713 -13.1846
v  5.0000 -7.0713 -18.1846
v  -7.0711 7.0709 -13.1846
v  -7.0711 -0.0002 -20.2557
v  -0.0000 -7.0713 -20.2557
v  0.0000 16.1795 0.6649
v  14.3000 -0.0000 0.6649
v  10.1116 11.4406 0.6649
v  7.1500 -11.4406 -6.9617
v  0.0000 -11.4406 -10.1207
v  0.0000 -9.1083 -11.0314
v  3.1787 -8.1381 -10.0059
v  5.5018 -7.0713 -9.3961
v  -5.5019 7.0709 -9.3962
v  -8.9444 -0.0000 -10.6364
v  -10.1116 -0.0000 -10.1207
v  -7.1500 11.4406 -6.9617
v  -3.1786 8.1379 -10.0061
v  -0.0000 -10.0002 -13.1846
v  -10.0000 -0.0002 -13.1846
v  -5.0000 -7.0713 -18.1846
v  7.1500 11.4406 8.2914
v  10.1116 -0.0000 11.4504
v  10.1116 -11.4406 0.6649
v  0.0000 -16.1795 0.6649
v  -8.9445 -0.0002 -10.6363
v  -7.1500 -11.4406 -6.9617
v  -5.5018 -7.0713 -9.3961
v  -3.1788 -8.1381 -10.0059
v  -0.0000 -9.1083 -11.0314
v  -14.3000 -0.0000 0.6649
v  -10.1116 11.4406 0.6649
v  -7.0711 -7.0713 -13.1846
v  5.9675 7.0711 10.5202
v  9.4101 -0.0000 11.7603
v  1.4890 9.1278 11.6957
v  0.0001 9.5822 12.1761
v  -0.0000 9.5822 12.1761
v  -0.0000 11.4406 11.4504
v  7.1500 -11.4406 8.2914
v  -10.1116 -11.4406 0.6649
v  -10.1116 -0.0000 11.4504
v  -7.1500 11.4406 8.2914
v  -9.4100 -0.0000 11.7604
v  -5.9674 7.0711 10.5202
v  -1.4888 9.1278 11.6958
v  5.9675 -7.0711 10.5201
v  -0.0000 -11.4406 11.4504
v  1.4890 -9.1278 11.6957
v  0.0001 -9.5822 12.1761
v  -0.0000 -9.5823 12.1761
v  -7.1500 -11.4406 8.2914
v  -1.4888 -9.1278 11.6957
v  -5.9674 -7.0711 10.5202
v  0.0001 10.0000 13.1846
v  7.0711 7.0711 13.1846
v  5.0001 7.0711 18.1846
v  10.0001 -0.0000 13.1846
v  0.0001 7.0711 20.2557
v  7.0711 -0.0000 20.2557
v  7.0711 -7.0711 13.1846
v  -7.0710 7.0711 13.1846
v  -4.9999 7.0711 18.1846
v  0.0001 -0.0000 23.1846
v  5.0001 -7.0711 18.1846
v  0.0001 -10.0000 13.1846
v  -9.9999 -0.0000 13.1846
v  -7.0710 -0.0000 20.2557
v  0.0001 -7.0711 20.2557
v  -7.0710 -7.0711 13.1846
v  -4.9999 -7.0711 18.1846
# 88 vertices

vn 0.0000 1.0000 0.0000
vn 0.7486 0.6630 0.0000
vn 0.5294 0.6630 -0.5294
vn -0.0000 0.6630 -0.7486
vn 0.3475 0.9182 0.1904
vn 0.6311 0.7303 0.2614
vn 1.0000 -0.0000 -0.0000
vn 0.7071 -0.0000 -0.7071
vn -0.5294 0.6630 -0.5294
vn -0.0000 0.0000 -1.0000
vn 0.5564 0.6402 -0.5297
vn 0.7201 0.0000 -0.6938
vn 0.4029 0.0785 -0.9119
vn 0.3806 0.3364 -0.8614
vn 0.0397 0.3650 -0.9302
vn 0.0000 0.6460 -0.7633
vn 0.8629 0.3572 0.3574
vn 0.9210 -0.0788 0.3815
vn 0.1604 0.9119 0.3777
vn -0.0356 0.9233 0.3824
vn 0.7486 -0.6630 0.0000
vn 0.5294 -0.6630 -0.5294
vn -0.7486 0.6630 -0.0000
vn -0.7071 -0.0000 -0.7071
vn -0.0000 -0.6630 -0.7486
vn 0.0000 1.0000 -0.0000
vn 1.0000 -0.0000 0.0000
vn 0.7730 0.6344 0.0000
vn 0.5564 -0.6402 -0.5297
vn 0.0000 -0.6460 -0.7633
vn 0.0290 -0.3636 -0.9311
vn 0.3806 -0.3364 -0.8614
vn 0.3805 -0.3367 -0.8613
vn -0.3806 0.3364 -0.8614
vn -0.4029 0.0789 -0.9119
vn -0.7201 0.0000 -0.6938
vn -0.5564 0.6402 -0.5297
vn -0.3747 0.3498 -0.8587
vn 0.6311 -0.7303 0.2614
vn -0.3475 0.9182 0.1904
vn -0.0000 -1.0000 -0.0000
vn -0.6311 0.7303 0.2614
vn -1.0000 -0.0000 -0.0000
vn -0.5294 -0.6630 -0.5294
vn 0.5564 0.6402 0.5297
vn 0.7201 -0.0000 0.6939
vn 0.7730 -0.6344 0.0000
vn 0.0000 -1.0000 0.0000
vn -0.3806 -0.3362 -0.8615
vn -0.5564 -0.6402 -0.5297
vn -0.3806 -0.3364 -0.8614
vn -0.3849 -0.3357 -0.8597
vn 0.1393 -0.9149 0.3789
vn -0.0525 -0.9226 0.3822
vn 0.3475 -0.9182 0.1904
vn -0.9210 -0.0787 0.3815
vn -0.8629 0.3572 0.3574
vn -0.7730 0.6344 -0.0000
vn -0.7486 -0.6630 -0.0000
vn 0.3806 0.3364 0.8614
vn 0.4011 0.1223 0.9078
vn 0.3942 0.2995 0.8689
vn -0.0364 0.3600 0.9322
vn -0.0000 0.6460 0.7633
vn 0.5564 -0.6402 0.5297
vn -0.7730 -0.6344 -0.0000
vn -0.6311 -0.7303 0.2614
vn -0.3475 -0.9182 0.1904
vn -0.7201 -0.0000 0.6938
vn -0.5564 0.6402 0.5297
vn -0.4029 0.0765 0.9120
vn -0.3806 0.3364 0.8614
vn 0.3894 -0.2674 0.8814
vn 0.3806 -0.3364 0.8614
vn -0.0000 -0.6460 0.7633
vn 0.3861 -0.3355 0.8593
vn -0.0325 -0.3636 0.9310
vn -0.5564 -0.6402 0.5297
vn -0.3806 -0.3364 0.8614
vn -0.3784 -0.3513 0.8564
vn 0.3475 0.9182 -0.1904
vn 0.7486 0.6630 -0.0000
vn 0.6311 0.7303 -0.2614
vn 0.0396 0.9232 -0.3824
vn 0.5294 0.6630 0.5294
vn 0.9177 -0.1158 -0.3801
vn 0.8828 0.2949 -0.3657
vn -0.1566 0.9125 -0.3780
vn -0.3475 0.9182 -0.1904
vn -0.0000 0.6630 0.7486
vn 0.7071 -0.0000 0.7071
vn 0.6311 -0.7303 -0.2614
vn -0.6311 0.7303 -0.2614
vn -0.5294 0.6630 0.5294
vn -0.0000 -0.0000 1.0000
vn 0.5294 -0.6630 0.5294
vn 0.0000 -1.0000 -0.0000
vn 0.3475 -0.9182 -0.1904
vn -1.0000 -0.0000 0.0000
vn -0.8509 0.3896 -0.3525
vn -0.9224 -0.0559 -0.3821
vn -0.7071 -0.0000 0.7071
vn -0.0000 -0.6630 0.7486
vn 0.0396 -0.9232 -0.3824
vn -0.7486 -0.6630 0.0000
vn -0.6311 -0.7303 -0.2614
vn -0.5294 -0.6630 0.5294
vn -0.1566 -0.9125 -0.3780
vn -0.3475 -0.9182 -0.1904
# 109 vertex normals

vt 0.0000 1.0000 0.0000
vt 0.0000 0.7500 0.0000
vt 0.1250 0.7500 0.0000
vt 0.1250 1.0000 0.0000
vt 0.2500 0.7500 0.0000
vt 1.0000 0.7500 0.0000
vt 0.8750 1.0000 0.0000
vt 0.8750 0.8411 0.0000
vt 0.9053 0.7500 0.0000
vt 0.0000 0.5000 0.0000
vt 0.1250 0.5000 0.0000
vt 0.2500 1.0000 0.0000
vt 0.3750 0.7500 0.0000
vt 0.2500 0.5000 0.0000
vt 0.1394 0.5000 0.0000
vt 0.1661 0.6545 0.0000
vt 0.2000 0.6778 0.0000
vt 0.2500 0.6990 0.0000
vt 1.0000 0.5000 0.0000
vt 0.9550 0.5000 0.0000
vt 0.7500 0.9239 0.0000
vt 0.8295 0.8411 0.0000
vt 0.7500 1.0000 0.0000
vt 0.0000 0.2500 0.0000
vt 0.1250 0.2500 0.0000
vt 0.3750 1.0000 0.0000
vt 0.5000 0.7500 0.0000
vt 0.3750 0.5000 0.0000
vt 0.2500 0.2500 0.0000
vt 0.2500 0.3010 0.0000
vt 0.2000 0.3222 0.0000
vt 0.1661 0.3455 0.0000
vt 0.3339 0.6545 0.0000
vt 0.3606 0.5000 0.0000
vt 0.3000 0.6778 0.0000
vt 1.0000 0.2500 0.0000
vt 0.9053 0.2500 0.0000
vt 0.6631 0.9239 0.0000
vt 0.6250 1.0000 0.0000
vt 0.6250 0.8411 0.0000
vt 0.0000 0.0000 0.0000
vt 0.5795 0.8411 0.0000
vt 0.5000 1.0000 0.0000
vt 0.5947 0.7500 0.0000
vt 0.5000 0.5000 0.0000
vt 0.3750 0.2500 0.0000
vt 0.1250 0.0000 0.0000
vt 0.8750 0.7500 0.0000
vt 0.8750 0.5000 0.0000
vt 0.3339 0.3455 0.0000
vt 0.3000 0.3222 0.0000
vt 0.7500 0.0761 0.0000
vt 0.7500 0.0000 0.0000
vt 0.8295 0.1589 0.0000
vt 0.8750 0.1589 0.0000
vt 0.8750 0.0000 0.0000
vt 0.5450 0.5000 0.0000
vt 0.5000 0.2500 0.0000
vt 0.2500 0.0000 0.0000
vt 0.8409 0.6545 0.0000
vt 0.8663 0.5000 0.0000
vt 0.7737 0.6995 0.0000
vt 0.7500 0.7094 0.0000
vt 0.7500 0.7500 0.0000
vt 0.8750 0.2500 0.0000
vt 0.5947 0.2500 0.0000
vt 0.5000 0.0000 0.0000
vt 0.5795 0.1589 0.0000
vt 0.6250 0.1589 0.0000
vt 0.6250 0.0000 0.0000
vt 0.6631 0.0761 0.0000
vt 0.6250 0.5000 0.0000
vt 0.6250 0.7500 0.0000
vt 0.3750 0.0000 0.0000
vt 0.6337 0.5000 0.0000
vt 0.6591 0.6545 0.0000
vt 0.7263 0.6995 0.0000
vt 0.8409 0.3455 0.0000
vt 0.7500 0.2500 0.0000
vt 0.7737 0.3005 0.0000
vt 0.7500 0.2906 0.0000
vt 0.6250 0.2500 0.0000
vt 0.7263 0.3005 0.0000
vt 0.6591 0.3455 0.0000
vt 0.0372 0.9256 0.0000
vt 0.0666 0.7500 0.0000
vt 0.1428 0.9643 0.0000
vt 0.1250 0.9256 0.0000
vt 0.0252 0.5000 0.0000
vt 0.2500 0.9643 0.0000
vt 0.2872 0.9256 0.0000
vt 0.0666 0.2500 0.0000
vt 0.3750 0.9256 0.0000
vt 0.4334 0.7500 0.0000
vt 0.7500 0.5000 0.0000
vt 0.0372 0.0744 0.0000
vt 0.4748 0.5000 0.0000
vt 0.1250 0.0744 0.0000
vt 0.1428 0.0357 0.0000
vt 0.4334 0.2500 0.0000
vt 0.2500 0.0357 0.0000
vt 0.2872 0.0744 0.0000
vt 0.3750 0.0744 0.0000
# 103 texture coords

o Sphere005
g Sphere005
s 1
f 1/1/1 2/2/2 3/3/3 
f 1/4/1 3/3/3 4/5/4 
f 2/6/2 1/7/1 5/8/5 
f 5/8/5 6/9/6 2/6/2 
f 7/10/7 8/11/8 3/3/3 
f 3/3/3 2/2/2 7/10/7 
f 1/12/1 4/5/4 9/13/9 
f 8/11/8 10/14/10 4/5/4 
f 4/5/4 3/3/3 8/11/8 
s 2
f 11/3/11 12/11/12 13/15/13 
f 11/3/11 13/15/13 6/16/14 
f 11/3/11 6/16/14 5/17/14 
f 11/3/11 5/17/14 14/18/15 
f 11/3/11 14/18/15 15/5/16 
s 1
f 7/19/7 2/6/2 6/9/6 
f 7/19/7 6/9/6 13/20/17 
f 16/20/18 7/19/7 13/20/17 
f 14/21/19 5/22/5 1/23/1 
f 1/23/1 17/21/20 14/21/19 
f 18/24/21 19/25/22 8/11/8 
f 8/11/8 7/10/7 18/24/21 
f 1/26/1 9/13/9 20/27/23 
f 10/14/10 21/28/24 9/13/9 
f 9/13/9 4/5/4 10/14/10 
f 19/25/22 22/29/25 10/14/10 
f 10/14/10 8/11/8 19/25/22 
s 2
f 23/4/26 11/3/11 15/5/16 
f 24/10/27 12/11/12 11/3/11 
f 11/3/11 25/2/28 24/10/27 
f 26/25/29 27/29/30 28/30/31 
f 26/25/29 28/30/31 29/31/32 
f 26/25/29 29/31/32 30/32/32 
f 12/11/12 26/25/29 30/32/32 
f 12/11/12 30/32/32 16/15/33 
f 12/11/12 16/15/33 13/15/13 
f 31/33/34 32/34/35 33/28/36 
f 31/33/34 33/28/36 34/13/37 
f 35/35/34 31/33/34 34/13/37 
f 17/18/38 35/35/34 34/13/37 
f 14/18/15 17/18/38 34/13/37 
f 15/5/16 14/18/15 34/13/37 
s 1
f 18/36/21 7/19/7 16/20/18 
f 16/20/18 30/37/39 18/36/21 
f 17/38/20 1/39/1 35/40/40 
f 36/41/41 19/25/22 18/24/21 
f 35/42/40 1/43/1 20/27/23 
f 20/27/23 31/44/42 35/42/40 
f 21/28/24 37/45/43 20/27/23 
f 20/27/23 9/13/9 21/28/24 
f 22/29/25 38/46/44 21/28/24 
f 21/28/24 10/14/10 22/29/25 
f 36/47/41 22/29/25 19/25/22 
s 2
f 23/12/26 15/5/16 34/13/37 
f 23/1/26 25/2/28 11/3/11 
f 39/48/45 40/49/46 24/19/27 
f 24/19/27 25/6/28 39/48/45 
f 24/10/27 41/24/47 26/25/29 
f 26/25/29 12/11/12 24/10/27 
f 42/47/48 27/29/30 26/25/29 
f 33/28/36 32/34/35 43/34/49 
f 44/46/50 33/28/36 43/34/49 
f 44/46/50 43/34/49 45/50/51 
f 27/29/30 44/46/50 45/50/51 
f 27/29/30 45/50/51 46/51/51 
f 27/29/30 46/51/51 47/30/52 
f 28/30/31 27/29/30 47/30/52 
s 1
f 28/52/53 47/52/54 36/53/41 
f 36/53/41 29/54/55 28/52/53 
f 29/55/55 36/56/41 18/36/21 
f 18/36/21 30/37/39 29/55/55 
f 37/45/43 43/57/56 32/57/57 
f 20/27/23 37/45/43 32/57/57 
f 20/27/23 32/57/57 31/44/42 
s 2
f 34/13/37 33/28/36 48/45/43 
f 48/45/43 49/27/58 34/13/37 
s 1
f 38/46/44 50/58/59 37/45/43 
f 37/45/43 21/28/24 38/46/44 
f 36/59/41 38/46/44 22/29/25 
s 2
f 23/26/26 34/13/37 49/27/58 
f 23/7/26 39/48/45 25/6/28 
f 51/60/60 52/61/61 40/49/46 
f 51/60/60 40/49/46 39/48/45 
f 53/62/60 51/60/60 39/48/45 
f 54/63/62 53/62/60 39/48/45 
f 55/63/63 54/63/62 39/48/45 
f 56/64/64 55/63/63 39/48/45 
f 57/65/65 41/36/47 24/19/27 
f 24/19/27 40/49/46 57/65/65 
f 42/41/48 26/25/29 41/24/47 
f 42/59/48 44/46/50 27/29/30 
f 44/46/50 58/58/66 48/45/43 
f 48/45/43 33/28/36 44/46/50 
s 1
f 43/57/56 37/45/43 50/58/59 
f 50/58/59 45/66/67 43/57/56 
f 50/58/59 36/67/41 46/68/68 
f 46/68/68 45/66/67 50/58/59 
f 46/69/68 36/70/41 47/71/54 
s 2
f 48/45/43 59/72/69 60/73/70 
f 60/73/70 49/27/58 48/45/43 
s 1
f 36/74/41 50/58/59 38/46/44 
s 2
f 23/43/26 49/27/58 60/73/70 
f 23/23/26 56/64/64 39/48/45 
f 60/73/70 59/72/69 61/75/71 
f 60/73/70 61/75/71 62/76/72 
f 60/73/70 62/76/72 63/77/72 
f 60/73/70 63/77/72 55/63/63 
f 60/73/70 55/63/63 56/64/64 
f 40/49/46 52/61/61 52/61/73 
f 57/65/65 40/49/46 52/61/73 
f 57/65/65 52/61/73 64/78/74 
f 65/79/75 57/65/65 64/78/74 
f 65/79/75 64/78/74 66/80/74 
f 65/79/75 66/80/74 67/81/76 
f 68/81/77 65/79/75 67/81/76 
f 42/56/48 41/36/47 57/65/65 
f 42/74/48 58/58/66 44/46/50 
f 48/45/43 58/58/66 69/82/78 
f 69/82/78 59/72/69 48/45/43 
f 23/39/26 60/73/70 56/64/64 
f 69/82/78 65/79/75 68/81/77 
f 69/82/78 68/81/77 70/83/79 
f 69/82/78 70/83/79 71/84/79 
f 59/72/69 69/82/78 71/84/79 
f 59/72/69 71/84/79 61/75/80 
f 59/72/69 61/75/80 61/75/71 
f 42/53/48 57/65/65 65/79/75 
f 42/67/48 69/82/78 58/58/66 
f 42/70/48 65/79/75 69/82/78 
s 4
f 53/85/81 72/1/1 73/2/82 
f 73/2/82 51/86/83 53/85/81 
f 54/87/84 72/4/1 53/88/81 
f 72/7/1 74/48/85 73/6/82 
f 75/10/27 52/89/86 52/89/87 
f 73/2/82 75/10/27 52/89/87 
f 73/2/82 52/89/87 51/86/83 
f 55/90/88 63/91/89 72/12/1 
f 72/12/1 54/90/84 55/90/88 
f 72/23/1 76/64/90 74/48/85 
f 77/49/91 75/19/27 73/6/82 
f 73/6/82 74/48/85 77/49/91 
f 52/89/86 75/10/27 78/24/21 
f 78/24/21 64/92/92 52/89/86 
f 79/27/23 72/26/1 63/93/89 
f 63/93/89 62/94/93 79/27/23 
f 72/39/1 80/73/94 76/64/90 
f 81/95/95 77/49/91 74/48/85 
f 74/48/85 76/64/90 81/95/95 
f 82/65/96 78/36/21 75/19/27 
f 75/19/27 77/49/91 82/65/96 
f 78/24/21 83/41/97 66/96/98 
f 66/96/98 64/92/92 78/24/21 
f 84/45/99 79/27/23 62/94/93 
f 84/45/99 62/94/93 61/97/100 
f 61/97/101 84/45/99 61/97/100 
f 72/43/1 79/27/23 80/73/94 
f 85/72/102 81/95/95 76/64/90 
f 76/64/90 80/73/94 85/72/102 
f 86/79/103 82/65/96 77/49/91 
f 77/49/91 81/95/95 86/79/103 
f 83/56/97 78/36/21 82/65/96 
f 66/98/98 83/47/97 67/99/104 
f 87/58/105 84/45/99 61/97/101 
f 61/97/101 71/100/106 87/58/105 
f 84/45/99 85/72/102 80/73/94 
f 80/73/94 79/27/23 84/45/99 
f 88/82/107 86/79/103 81/95/95 
f 81/95/95 85/72/102 88/82/107 
f 83/53/97 82/65/96 86/79/103 
f 68/101/108 67/101/104 83/59/97 
f 83/59/97 70/102/109 68/101/108 
f 70/103/109 83/74/97 87/58/105 
f 87/58/105 71/100/106 70/103/109 
f 87/58/105 88/82/107 85/72/102 
f 85/72/102 84/45/99 87/58/105 
f 83/70/97 86/79/103 88/82/107 
f 83/67/97 88/82/107 87/58/105 
# 176 faces

